# xmcd CD database file
#
# Track frame offsets:
#	150
#	11417
#	27720
#	49067
#	62717
#	88060
#	102545
#	115067
#	129642
#	142420
#	157242
#	191187
#	203247
#	224197
#
# Disc length: 3225 seconds
#
# Revision: 2
# Processed by: cddbd v1.5.1PL0 Copyright (c) Steve Scherf et al.
# Submitted via: CDex 1.50
#
DISCID=e60c970e
DTITLE=Various Artist - Voice of Blues
DYEAR=1994
DGENRE=Blues
TTITLE0=E. Clapton - Snake Drive
TTITLE1=Gary Moore - Dont let me be misunderstood
TTITLE2=Korner/Plant/Miller - Operator
TTITLE3=Peter Green - Born on the wild side
TTITLE4=Stretch - Show Biz Blues
TTITLE5=Climax Blues Band - Couldnt get it right
TTITLE6=Johnny Winter - Leaving Blues
TTITLE7=Rod Stweart - So much to say
TTITLE8=Clapton - Page - Freight Loader
TTITLE9=Status Qou - In my chair
TTITLE10=Colosseum/Chris Farlowe - Encore...Stormy Monday Blues
TTITLE11=All Starts /Jeff Beck - Steeling
TTITLE12=Juicy Lucy - Just one time
TTITLE13=John Mayall - Telephone Blues
EXTD=YEAR: 1994
EXTT0=
EXTT1=
EXTT2=
EXTT3=
EXTT4=
EXTT5=
EXTT6=
EXTT7=
EXTT8=
EXTT9=
EXTT10=
EXTT11=
EXTT12=
EXTT13=
PLAYORDER=
